<svg width="32" height="32" viewBox="0 0 32 32" fill="none" xmlns="http://www.w3.org/2000/svg">
<rect width="32" height="32" rx="8" transform="matrix(1 0 0 -1 0 32)" fill="#EFF0F2"/>
<path d="M24.3337 9.33334V9.8215C24.3337 9.96201 24.3337 10.0323 24.33 10.1C24.2991 10.6687 24.075 11.2099 23.6946 11.6338C23.6494 11.6843 23.5997 11.734 23.5003 11.8333C23.401 11.9327 23.3513 11.9824 23.3008 12.0276C22.8768 12.408 22.3357 12.6321 21.7669 12.663C21.6993 12.6667 21.629 12.6667 21.4885 12.6667H19.6788C19.5383 12.6667 19.4681 12.6667 19.4004 12.663C18.8316 12.6321 18.2905 12.408 17.8665 12.0276C17.816 11.9824 17.7663 11.9327 17.667 11.8333" stroke="#626566" stroke-width="2" stroke-linecap="round" stroke-linejoin="round"/>
<path d="M23.083 12.25L22.6663 14.3333L22.0895 16.3522C21.9193 16.9478 21.833 17.5643 21.833 18.1837V18.4429C21.833 18.7583 21.8554 19.0734 21.9 19.3857L22.2497 22.6667" stroke="#626566" stroke-width="2" stroke-linecap="round" stroke-linejoin="round"/>
<path d="M8.91699 12.25L9.33366 14.3333L9.91049 16.3522C10.0807 16.9478 10.167 17.5643 10.167 18.1837V18.4429C10.167 18.7583 10.1446 19.0734 10.1 19.3857L9.75033 22.6667" stroke="#626566" stroke-width="2" stroke-linecap="round" stroke-linejoin="round"/>
<path d="M7.66699 9.33334V9.8215C7.66699 9.96201 7.66699 10.0323 7.67067 10.1C7.70153 10.6687 7.92569 11.2099 8.30602 11.6338C8.35129 11.6843 8.40097 11.734 8.50033 11.8333C8.59968 11.9327 8.64936 11.9824 8.69983 12.0276C9.12381 12.408 9.66497 12.6321 10.2337 12.663C10.3014 12.6667 10.3717 12.6667 10.5122 12.6667H12.3218C12.4623 12.6667 12.5326 12.6667 12.6003 12.663C13.169 12.6321 13.7102 12.408 14.1342 12.0276C14.1846 11.9824 14.2343 11.9327 14.3337 11.8333" stroke="#626566" stroke-width="2" stroke-linecap="round" stroke-linejoin="round"/>
<path d="M18.5 16.8333H17.6667C16.7462 16.8333 16 16.0871 16 15.1667C16 16.0871 15.2538 16.8333 14.3333 16.8333H13.5" stroke="#626566" stroke-width="2" stroke-linecap="round" stroke-linejoin="round"/>
<path d="M18.5 21H17.6667C16.7462 21 16 20.2538 16 19.3333C16 20.2538 15.2538 21 14.3333 21H13.5" stroke="#626566" stroke-width="2" stroke-linecap="round" stroke-linejoin="round"/>
</svg>
