<svg width="11" height="15" viewBox="0 0 11 15" fill="none" xmlns="http://www.w3.org/2000/svg">
<path d="M6.68656 14.7025C6.51425 14.7025 6.36656 14.6286 6.2681 14.5055C6.09579 14.3086 6.09579 14.0378 6.24348 13.8409C6.24348 13.8163 7.12964 12.5363 6.09579 11.2317L6.07118 11.2071C6.02194 11.1578 5.99733 11.1086 5.9481 11.0348C5.70194 10.7394 5.4804 10.4194 5.43117 9.87784C4.42194 10.6655 3.48656 12.0686 4.24964 13.9394C4.32348 14.1363 4.27425 14.3825 4.12656 14.5548C3.95425 14.7025 3.73271 14.7517 3.51117 14.6532C2.20656 14.0871 0.65579 12.8071 0.163482 10.9117C-0.30421 9.16399 0.237328 7.26861 1.71425 5.27476C2.35425 4.43784 3.33887 2.71476 2.99425 0.647071C2.96964 0.425532 3.04348 0.228609 3.21579 0.105532C3.3881 -0.0175445 3.60964 -0.0421599 3.80656 0.080917C4.84041 0.647071 7.20348 2.39476 6.71117 6.21015C6.71117 6.25938 6.71117 6.30861 6.71117 6.30861C6.73579 6.30861 6.88348 6.33322 7.05579 6.23476C7.20348 6.16092 7.52348 5.89015 7.49887 5.25015C7.47425 5.00399 7.62194 4.78246 7.84348 4.70861C8.06502 4.61015 8.31117 4.68399 8.48348 4.88092C9.68964 6.35784 10.8219 8.74553 10.3296 10.9363C9.96041 12.5363 8.8281 13.7671 6.95733 14.6286C6.83425 14.6778 6.76041 14.7025 6.68656 14.7025ZM4.15117 1.68092C4.10194 3.60092 3.19117 5.12707 2.57579 5.93938C1.29579 7.63784 0.828097 9.21322 1.19733 10.6163C1.4681 11.6255 2.1081 12.4132 2.82194 12.9548C2.57579 10.4686 4.59425 8.81938 5.87425 8.25322C6.07118 8.15476 6.31733 8.20399 6.46502 8.35169C6.63733 8.49938 6.68656 8.72092 6.61271 8.94246C6.34194 9.82861 6.51425 10.0255 6.73579 10.2963C6.78502 10.3701 6.85887 10.444 6.93271 10.5425C7.57271 11.3548 7.72041 12.1917 7.64656 12.9055C8.45887 12.2901 8.97579 11.5517 9.17271 10.6901C9.49271 9.28707 8.95117 7.7363 8.23733 6.53015C8.06502 6.80092 7.84348 7.02246 7.5481 7.19476C7.03118 7.49015 6.44041 7.49015 6.02194 7.21938C5.65271 6.97322 5.4804 6.55476 5.55425 6.06246C5.87425 3.82246 5.03733 2.46861 4.15117 1.68092Z" fill="#1B3A85"/>
</svg>
