<svg width="15" height="15" viewBox="0 0 15 15" fill="none" xmlns="http://www.w3.org/2000/svg">
<path d="M13.4396 3.87218C13.7918 3.52004 13.9897 3.04241 13.9898 2.54436C13.9898 2.0463 13.792 1.56862 13.4399 1.2164C13.0878 0.864173 12.6101 0.666261 12.1121 0.666199C11.614 0.666136 11.1364 0.863928 10.7841 1.21606L1.8931 10.1091C1.73842 10.2633 1.62403 10.4532 1.56 10.662L0.679962 13.5613C0.662744 13.6189 0.661444 13.6801 0.676199 13.7384C0.690953 13.7967 0.721213 13.8499 0.763767 13.8924C0.806321 13.9349 0.859582 13.9651 0.917899 13.9797C0.976216 13.9944 1.03741 13.993 1.095 13.9757L3.99494 13.0963C4.20358 13.0328 4.39344 12.9192 4.54789 12.7652L13.4396 3.87218Z" stroke="white" stroke-width="1.33239" stroke-linecap="round" stroke-linejoin="round"/>
</svg>
