<svg width="16" height="16" viewBox="0 0 16 16" fill="none" xmlns="http://www.w3.org/2000/svg">
<g clip-path="url(#clip0_320_1781)">
<path d="M11.7309 8.51201C11.981 8.76211 12.3202 8.90262 12.6739 8.90262C13.0276 8.90262 13.3668 8.76211 13.6169 8.51201C13.867 8.26192 14.0075 7.92271 14.0075 7.56902C14.0075 7.21532 13.867 6.87611 13.6169 6.62601L12.4383 5.44801C12.6884 5.69803 13.0275 5.83844 13.3812 5.83838C13.5563 5.83835 13.7296 5.80383 13.8914 5.7368C14.0532 5.66976 14.2001 5.57152 14.3239 5.44768C14.4477 5.32385 14.5459 5.17684 14.6129 5.01505C14.6799 4.85327 14.7143 4.67988 14.7143 4.50478C14.7143 4.32968 14.6797 4.1563 14.6127 3.99454C14.5457 3.83278 14.4474 3.68581 14.3236 3.56201L12.4383 1.67668C12.1882 1.42658 11.8491 1.28604 11.4955 1.28598C11.1419 1.28592 10.8027 1.42634 10.5526 1.67635C10.3025 1.92636 10.162 2.26548 10.1619 2.61911C10.1618 2.97274 10.3022 3.31192 10.5523 3.56201L9.37426 2.38335C9.25042 2.25951 9.10341 2.16128 8.94161 2.09426C8.77981 2.02724 8.60639 1.99274 8.43126 1.99274C8.25613 1.99274 8.08271 2.02724 7.92091 2.09426C7.75911 2.16128 7.6121 2.25951 7.48826 2.38335C7.36442 2.50718 7.26619 2.6542 7.19917 2.816C7.13215 2.9778 7.09766 3.15122 7.09766 3.32635C7.09766 3.50148 7.13215 3.6749 7.19917 3.8367C7.26619 3.9985 7.36442 4.14551 7.48826 4.26935L11.7309 8.51201Z" stroke="#1B3A85" stroke-width="1.33239" stroke-linecap="round" stroke-linejoin="round"/>
<path d="M1.66699 14.3327L2.59966 13.4" stroke="#1B3A85" stroke-width="1.33239" stroke-linecap="round" stroke-linejoin="round"/>
<path d="M13.4004 2.59933L14.3331 1.66666" stroke="#1B3A85" stroke-width="1.33239" stroke-linecap="round" stroke-linejoin="round"/>
<path d="M3.56217 14.3233C3.81218 14.5734 4.1513 14.714 4.50493 14.714C4.68003 14.7141 4.85342 14.6796 5.01521 14.6126C5.17699 14.5457 5.324 14.4475 5.44783 14.3237C5.57167 14.1999 5.66991 14.0529 5.73695 13.8912C5.80398 13.7294 5.8385 13.556 5.83853 13.3809C5.83857 13.2058 5.80411 13.0324 5.73713 12.8706C5.67015 12.7089 5.57196 12.5619 5.44817 12.438L6.62617 13.6167C6.87627 13.8668 7.21547 14.0073 7.56917 14.0073C7.92286 14.0073 8.26207 13.8668 8.51217 13.6167C8.76227 13.3666 8.90277 13.0274 8.90277 12.6737C8.90277 12.32 8.76227 11.9808 8.51217 11.7307L4.2695 7.48802C4.14566 7.36418 3.99865 7.26595 3.83685 7.19893C3.67505 7.13191 3.50163 7.09741 3.3265 7.09741C3.15137 7.09741 2.97795 7.13191 2.81615 7.19893C2.65435 7.26595 2.50734 7.36418 2.3835 7.48802C2.25966 7.61185 2.16143 7.75887 2.09441 7.92067C2.02739 8.08247 1.9929 8.25588 1.9929 8.43101C1.9929 8.60615 2.02739 8.77956 2.09441 8.94136C2.16143 9.10316 2.25966 9.25018 2.3835 9.37402L3.56217 10.552C3.31207 10.302 2.9729 10.1616 2.61926 10.1616C2.26563 10.1617 1.92651 10.3022 1.6765 10.5523C1.42649 10.8024 1.28607 11.1416 1.28613 11.4953C1.2862 11.8489 1.42673 12.188 1.67683 12.438L3.56217 14.3233Z" stroke="#1B3A85" stroke-width="1.33239" stroke-linecap="round" stroke-linejoin="round"/>
<path d="M6.40039 9.59999L9.60039 6.39999" stroke="#1B3A85" stroke-width="1.33239" stroke-linecap="round" stroke-linejoin="round"/>
</g>
<defs>
<clipPath id="clip0_320_1781">
<rect width="16" height="16" fill="white"/>
</clipPath>
</defs>
</svg>
