<svg width="24" height="24" viewBox="0 0 24 24" fill="none" xmlns="http://www.w3.org/2000/svg">
<path d="M21.9928 11.9961H19.5136C19.0767 11.9952 18.6515 12.1374 18.3031 12.401C17.9547 12.6646 17.7022 13.035 17.5842 13.4557L15.235 21.813C15.2198 21.8649 15.1883 21.9105 15.145 21.9429C15.1017 21.9754 15.0491 21.9929 14.995 21.9929C14.941 21.9929 14.8884 21.9754 14.8451 21.9429C14.8018 21.9105 14.7703 21.8649 14.7551 21.813L9.23692 2.17933C9.22178 2.12742 9.19021 2.08182 9.14695 2.04937C9.10369 2.01693 9.05107 1.99939 8.99699 1.99939C8.94292 1.99939 8.8903 2.01693 8.84704 2.04937C8.80378 2.08182 8.77221 2.12742 8.75707 2.17933L6.40784 10.5366C6.29034 10.9556 6.03934 11.3249 5.69293 11.5883C5.34653 11.8517 4.92364 11.9949 4.48846 11.9961H1.99927" stroke="#0D1F49" stroke-width="1.99935" stroke-linecap="round" stroke-linejoin="round"/>
</svg>
