<svg width="32" height="32" viewBox="0 0 32 32" fill="none" xmlns="http://www.w3.org/2000/svg">
<rect width="32" height="32" rx="8" fill="#EFF0F2"/>
<path d="M13.3034 15.9999L18.6957 15.9999M5.32735 16L6.90009 16M25.0991 15.9998L26.6718 15.9998M6.93288 17.5884C6.93281 18.0098 7.10012 18.4139 7.39801 18.7119C7.69591 19.0099 8.09998 19.1774 8.52134 19.1774C8.94271 19.1775 9.34684 19.0102 9.64485 18.7123C9.94285 18.4144 10.1103 18.0103 10.1104 17.589L10.1098 19.5746C10.1098 19.996 10.2772 20.4002 10.5752 20.6982C10.8732 20.9962 11.2774 21.1636 11.6988 21.1636C12.1203 21.1636 12.5245 20.9962 12.8225 20.6982C13.1205 20.4002 13.2879 19.996 13.2879 19.5745L13.2879 12.4253C13.2879 12.0039 13.1205 11.5997 12.8225 11.3017C12.5245 11.0037 12.1203 10.8363 11.6989 10.8363C11.2775 10.8363 10.8733 11.0037 10.5753 11.3017C10.2773 11.5997 10.1099 12.0039 10.1099 12.4253L10.1104 14.4109C10.1103 13.9895 9.94288 13.5855 9.64488 13.2876C9.34688 12.9897 8.94275 12.8224 8.52138 12.8224C8.10002 12.8225 7.69594 12.99 7.39805 13.288C7.10015 13.586 6.93283 13.9901 6.9329 14.4115L6.93288 17.5884ZM18.7116 19.5746C18.7116 19.9961 18.879 20.4003 19.177 20.6983C19.475 20.9963 19.8792 21.1637 20.3006 21.1637C20.7221 21.1637 21.1263 20.9962 21.4243 20.6982C21.7223 20.4002 21.8897 19.9961 21.8897 19.5746L21.8891 17.589C21.8892 17.7977 21.9303 18.0043 22.0102 18.197C22.09 18.3897 22.2071 18.5649 22.3547 18.7124C22.6527 19.0103 23.0568 19.1776 23.4782 19.1775C23.6868 19.1775 23.8934 19.1363 24.0861 19.0564C24.2789 18.9766 24.454 18.8595 24.6015 18.712C24.8994 18.414 25.0667 18.0098 25.0666 17.5885L25.0667 14.4115C25.0667 13.9901 24.8994 13.586 24.6015 13.288C24.454 13.1405 24.2789 13.0234 24.0862 12.9435C23.8934 12.8637 23.6868 12.8225 23.4782 12.8225C23.2696 12.8225 23.063 12.8635 22.8702 12.9433C22.6774 13.0231 22.5022 13.1401 22.3547 13.2876C22.2071 13.4351 22.0901 13.6103 22.0102 13.803C21.9303 13.9957 21.8892 14.2023 21.8891 14.411L21.8897 12.4254C21.8897 12.0039 21.7223 11.5998 21.4243 11.3018C21.1263 11.0038 20.7221 10.8364 20.3007 10.8364C19.8793 10.8364 19.4751 11.0038 19.1771 11.3018C18.8791 11.5998 18.7117 12.004 18.7117 12.4254L18.7116 19.5746Z" stroke="#626566" stroke-width="1.5" stroke-linecap="round" stroke-linejoin="round"/>
</svg>
