<svg width="32" height="32" viewBox="0 0 32 32" fill="none" xmlns="http://www.w3.org/2000/svg">
<rect width="32" height="32" rx="8" fill="#F3F4F6"/>
<path d="M21.9999 16.5267C21.8951 17.6615 21.4692 18.7429 20.7721 19.6445C20.075 20.5461 19.1356 21.2305 18.0637 21.6177C16.9919 22.0049 15.8319 22.0787 14.7196 21.8307C13.6073 21.5827 12.5886 21.023 11.7828 20.2172C10.9769 19.4113 10.4172 18.3927 10.1692 17.2803C9.92118 16.168 9.99508 15.0081 10.3822 13.9362C10.7694 12.8643 11.4538 11.9249 12.3554 11.2278C13.257 10.5308 14.3385 10.1049 15.4733 10C14.8089 10.8988 14.4892 12.0063 14.5723 13.1209C14.6554 14.2356 15.1358 15.2834 15.9262 16.0737C16.7166 16.8641 17.7643 17.3445 18.879 17.4276C19.9936 17.5108 21.1011 17.1911 21.9999 16.5267Z" stroke="#9CA3AF" stroke-width="1.35" stroke-linecap="round" stroke-linejoin="round"/>
</svg>
