<svg width="32" height="32" viewBox="0 0 32 32" fill="none" xmlns="http://www.w3.org/2000/svg">
<path d="M19.9998 2.66663H11.9998C11.2635 2.66663 10.6665 3.26358 10.6665 3.99996V6.66663C10.6665 7.40301 11.2635 7.99996 11.9998 7.99996H19.9998C20.7362 7.99996 21.3332 7.40301 21.3332 6.66663V3.99996C21.3332 3.26358 20.7362 2.66663 19.9998 2.66663Z" stroke="#B0BEC5" stroke-width="2.66667" stroke-linecap="round" stroke-linejoin="round"/>
<path d="M21.3335 5.33337H24.0002C24.7074 5.33337 25.3857 5.61433 25.8858 6.11442C26.3859 6.61452 26.6668 7.2928 26.6668 8.00004V26.6667C26.6668 27.374 26.3859 28.0522 25.8858 28.5523C25.3857 29.0524 24.7074 29.3334 24.0002 29.3334H8.00016C7.29292 29.3334 6.61464 29.0524 6.11454 28.5523C5.61445 28.0522 5.3335 27.374 5.3335 26.6667V8.00004C5.3335 7.2928 5.61445 6.61452 6.11454 6.11442C6.61464 5.61433 7.29292 5.33337 8.00016 5.33337H10.6668" stroke="#B0BEC5" stroke-width="2.66667" stroke-linecap="round" stroke-linejoin="round"/>
<path d="M16 14.6666H21.3333" stroke="#B0BEC5" stroke-width="2.66667" stroke-linecap="round" stroke-linejoin="round"/>
<path d="M16 21.3334H21.3333" stroke="#B0BEC5" stroke-width="2.66667" stroke-linecap="round" stroke-linejoin="round"/>
<path d="M10.6665 14.6666H10.6798" stroke="#B0BEC5" stroke-width="2.66667" stroke-linecap="round" stroke-linejoin="round"/>
<path d="M10.6665 21.3334H10.6798" stroke="#B0BEC5" stroke-width="2.66667" stroke-linecap="round" stroke-linejoin="round"/>
</svg>
