<svg width="40" height="40" viewBox="0 0 40 40" fill="none" xmlns="http://www.w3.org/2000/svg">
<path d="M0 10C0 4.47716 4.47715 0 10 0H29.9993C35.5221 0 39.9993 4.47715 39.9993 10V29.9993C39.9993 35.5221 35.5222 39.9993 29.9993 39.9993H10C4.47716 39.9993 0 35.5222 0 29.9993V10Z" fill="#90A3CF"/>
<path d="M27.4774 20.4046C27.3993 21.8514 26.9038 23.2446 26.0508 24.4158C25.1978 25.587 24.0238 26.486 22.6707 27.0042C21.3177 27.5224 19.8435 27.6376 18.4264 27.3359C17.0092 27.0342 15.7098 26.3284 14.6853 25.3039C13.6607 24.2795 12.9548 22.9801 12.6529 21.563C12.351 20.1459 12.466 18.6717 12.9841 17.3186C13.5022 15.9655 14.4011 14.7914 15.5722 13.9383C16.7433 13.0852 18.1364 12.5895 19.5832 12.5113C19.9207 12.493 20.0974 12.8946 19.9182 13.1805C19.319 14.1392 19.0624 15.2728 19.1903 16.3962C19.3182 17.5196 19.8231 18.5665 20.6226 19.366C21.4221 20.1655 22.469 20.6704 23.5924 20.7984C24.7158 20.9263 25.8494 20.6697 26.8082 20.0705C27.0949 19.8913 27.4957 20.0671 27.4774 20.4046Z" stroke="white" stroke-width="1.66587" stroke-linecap="round" stroke-linejoin="round"/>
</svg>
