<svg width="14" height="14" viewBox="0 0 14 14" fill="none" xmlns="http://www.w3.org/2000/svg">
<path d="M12.5742 7.12628C12.4693 8.26108 12.0434 9.34255 11.3463 10.2441C10.6492 11.1457 9.70981 11.8301 8.63796 12.2173C7.5661 12.6045 6.40614 12.6784 5.29382 12.4303C4.1815 12.1823 3.16282 11.6226 2.35697 10.8168C1.55112 10.0109 0.991446 8.99226 0.743425 7.87994C0.495403 6.76762 0.569297 5.60767 0.95646 4.53581C1.34362 3.46395 2.02804 2.52452 2.92963 1.82744C3.83122 1.13037 4.91268 0.70448 6.04749 0.599609C5.3831 1.49845 5.06339 2.60591 5.14651 3.72055C5.22963 4.8352 5.71006 5.88298 6.50042 6.67334C7.29078 7.4637 8.33857 7.94413 9.45321 8.02725C10.5679 8.11038 11.6753 7.79067 12.5742 7.12628Z" stroke="#16347A" stroke-width="1.19915" stroke-linecap="round" stroke-linejoin="round"/>
</svg>
