<svg width="24" height="24" viewBox="0 0 24 24" fill="none" xmlns="http://www.w3.org/2000/svg">
<path d="M9 10.4201L4.2 5.3501M5 18H2M14.5 22.0001L2.586 9.41511C2.38324 9.2125 2.22639 8.96867 2.12609 8.70015C2.0258 8.43162 1.9844 8.14468 2.00469 7.85875C2.02499 7.57283 2.1065 7.29461 2.24372 7.04294C2.38094 6.79128 2.57065 6.57205 2.8 6.40011L8.41 2.19211C8.55913 2.08313 8.73553 2.01759 8.91964 2.00275C9.10375 1.9879 9.28837 2.02434 9.45304 2.10802C9.6177 2.1917 9.75597 2.31935 9.85252 2.47681C9.94906 2.63428 10.0001 2.8154 10 3.00011V5.00011C10 5.42463 10.1351 5.83814 10.3857 6.1808C10.6363 6.52345 10.9894 6.77748 11.394 6.90611L15.323 8.05311C15.5206 8.12054 15.6921 8.24812 15.8135 8.41795C15.9349 8.58778 16.0001 8.79134 16 9.00011C16.155 15.3931 18.082 18.0001 20 18.0001C20.5304 18.0001 21.0391 18.2108 21.4142 18.5859C21.7893 18.961 22 19.4697 22 20.0001C22 20.5305 21.7893 21.0392 21.4142 21.4143C21.0391 21.7894 20.5304 22.0001 20 22.0001H6" stroke="#1B3A85" stroke-width="2" stroke-linecap="round" stroke-linejoin="round"/>
</svg>
