<svg width="16" height="16" viewBox="0 0 16 16" fill="none" xmlns="http://www.w3.org/2000/svg">
<path d="M2 4.66667C2 3.95942 2.28095 3.28115 2.78105 2.78105C3.28115 2.28095 3.95942 2 4.66667 2H11.3333C12.0406 2 12.7189 2.28095 13.219 2.78105C13.719 3.28115 14 3.95942 14 4.66667V11.3333C14 12.0406 13.719 12.7189 13.219 13.219C12.7189 13.719 12.0406 14 11.3333 14H4.66667C3.95942 14 3.28115 13.719 2.78105 13.219C2.28095 12.7189 2 12.0406 2 11.3333V4.66667Z" stroke="#1B3A85" stroke-linecap="round" stroke-linejoin="round"/>
<path d="M8.00014 4.66664C9.30414 4.66664 10.4828 5.2013 11.3335 6.0633L9.3628 7.9993C8.99317 7.65696 8.50795 7.46673 8.00414 7.46664C7.50041 7.46654 7.01521 7.65653 6.64547 7.99864L4.6748 6.0633C5.10917 5.61993 5.62785 5.26795 6.20032 5.02809C6.77278 4.78822 7.38745 4.66533 8.00814 4.66664H8.00014Z" stroke="#1B3A85" stroke-linecap="round" stroke-linejoin="round"/>
</svg>
