<svg width="24" height="24" viewBox="0 0 24 24" fill="none" xmlns="http://www.w3.org/2000/svg">
<path d="M17.5905 12.7639C17.9655 13.1389 18.4741 13.3496 19.0045 13.3496C19.5349 13.3496 20.0435 13.1389 20.4186 12.7639C20.7936 12.3888 21.0043 11.8802 21.0043 11.3498C21.0043 10.8195 20.7936 10.3108 20.4186 9.9358L18.6511 8.16937C19.0262 8.54426 19.5347 8.75482 20.065 8.75473C20.3276 8.75468 20.5876 8.70292 20.8301 8.6024C21.0727 8.50188 21.2931 8.35456 21.4787 8.16887C21.6643 7.98317 21.8116 7.76274 21.912 7.52014C22.0124 7.27754 22.0641 7.01754 22.0641 6.75497C22.064 6.49241 22.0123 6.23242 21.9117 5.98986C21.8112 5.7473 21.6639 5.52692 21.4782 5.34129L18.6511 2.51421C18.2762 2.13918 17.7677 1.92844 17.2374 1.92834C16.7072 1.92825 16.1986 2.13881 15.8235 2.51371C15.4485 2.8886 15.2378 3.39712 15.2377 3.92739C15.2376 4.45767 15.4482 4.96626 15.823 5.34129L14.0566 3.57386C13.8709 3.38817 13.6505 3.24087 13.4079 3.14037C13.1652 3.03987 12.9052 2.98815 12.6426 2.98815C12.38 2.98815 12.1199 3.03987 11.8773 3.14037C11.6347 3.24087 11.4142 3.38817 11.2285 3.57386C11.0428 3.75956 10.8955 3.98001 10.795 4.22263C10.6945 4.46525 10.6428 4.72529 10.6428 4.9879C10.6428 5.25051 10.6945 5.51055 10.795 5.75318C10.8955 5.9958 11.0428 6.21625 11.2285 6.40194L17.5905 12.7639Z" stroke="#9CA3AF" stroke-width="1.99935" stroke-linecap="round" stroke-linejoin="round"/>
<path d="M2.49927 21.4935L3.89927 20.0935" stroke="#9CA3AF" stroke-width="1.99935" stroke-linecap="round" stroke-linejoin="round"/>
<path d="M20.0935 3.89915L21.4935 2.49915" stroke="#9CA3AF" stroke-width="1.99935" stroke-linecap="round" stroke-linejoin="round"/>
<path d="M5.34117 21.478C5.71606 21.853 6.22458 22.0637 6.75485 22.0638C7.01742 22.0639 7.27742 22.0122 7.52002 21.9118C7.76261 21.8113 7.98305 21.6641 8.16875 21.4785C8.35444 21.2928 8.50176 21.0724 8.60228 20.8299C8.7028 20.5873 8.75456 20.3273 8.75461 20.0648C8.75465 19.8022 8.70298 19.5422 8.60255 19.2996C8.50211 19.057 8.35488 18.8366 8.16925 18.6509L9.93567 20.4183C10.3107 20.7933 10.8193 21.004 11.3497 21.004C11.8801 21.004 12.3887 20.7933 12.7638 20.4183C13.1388 20.0433 13.3495 19.5346 13.3495 19.0043C13.3495 18.4739 13.1388 17.9653 12.7638 17.5902L6.40182 11.2283C6.21613 11.0426 5.99568 10.8953 5.75305 10.7948C5.51043 10.6943 5.25039 10.6426 4.98778 10.6426C4.72517 10.6426 4.46513 10.6943 4.22251 10.7948C3.97989 10.8953 3.75943 11.0426 3.57374 11.2283C3.38805 11.414 3.24074 11.6344 3.14025 11.8771C3.03975 12.1197 2.98802 12.3797 2.98802 12.6423C2.98802 12.9049 3.03975 13.165 3.14025 13.4076C3.24074 13.6502 3.38805 13.8707 3.57374 14.0564L5.34117 15.8228C4.96614 15.4479 4.45755 15.2373 3.92727 15.2374C3.397 15.2375 2.88848 15.4483 2.51358 15.8233C2.13869 16.1983 1.92813 16.7069 1.92822 17.2372C1.92832 17.7675 2.13906 18.276 2.51408 18.6509L5.34117 21.478Z" stroke="#9CA3AF" stroke-width="1.99935" stroke-linecap="round" stroke-linejoin="round"/>
<path d="M9.59692 14.3954L14.3954 9.59692" stroke="#9CA3AF" stroke-width="1.99935" stroke-linecap="round" stroke-linejoin="round"/>
</svg>
